User Type,Username,Date,Text
[T],satos7889,2010-12-06T15:52Z,"Requests can be mailed to satos7889@gmail.com
I cant guarantee that it ll be uploaded. but i ll try my best.
:)"
,abhikrit,2010-12-07T07:29Z,no description of the file :(
[T],satos7889,2010-12-07T16:22Z,"FILE DESCRIPTION

Format                           : MPEG-4
Format profile                   : Apple AAC audio with iTunes info
Codec ID                         : M4A 
File size                        : 301 MiB
Duration                         : 1h 27mn
Overall bit rate                 : 482 Kbps

Video
Format                           : AVC
Format/Info                      : Advanced Video Codec
Format profile                   : Baseline@L3.0
Format settings, CABAC           : No
Format settings, ReFrames        : 3 frames
Codec ID                         : avc1
Codec ID/Info                    : Advanced Video Coding
Duration                         : 1h 27mn
Bit rate mode                    : Variable
Bit rate                         : 424 Kbps
Maximum bit rate                 : 4 408 Kbps
Width                            : 480 pixels
Height                           : 272 pixels
Display aspect ratio             : 16:9
Frame rate mode                  : Constant
Frame rate                       : 25.000 fps
Resolution                       : 24 bits
Colorimetry                      : 4:2:0
Scan type                        : Progressive
Bits/(Pixel*Frame)               : 0.130
Stream size                      : 264 MiB (88%)
Writing library                  : x264 core 59

Audio
Format                           : AAC
Format/Info                      : Advanced Audio Codec
Format version                   : Version 4
Format profile                   : LC
Format settings, SBR             : No
Codec ID                         : 40
Duration                         : 1h 27mn
Bit rate mode                    : Variable
Bit rate                         : 56.4 Kbps
Maximum bit rate                 : 87.6 Kbps
Channel(s)                       : 2 channels
Channel positions                : L R
Sampling rate                    : 44.1 KHz
Resolution                       : 16 bits
Stream size                      : 35.2 MiB (12%)"
[T],satos7889,2010-12-07T16:22Z,hope tats enof ;)
[T],satos7889,2010-12-07T16:23Z,hope tats enof;)
[T],satos7889,2010-12-09T04:45Z,"If u lik my download rate ""+"" in quality :)"
